<?xml version="1.0" encoding="utf-8"?>
<!-- Generator: Adobe Illustrator 19.1.1, SVG Export Plug-In . SVG Version: 6.00 Build 0)  -->
<svg version="1.1" id="Calque_1" xmlns="http://www.w3.org/2000/svg" xmlns:xlink="http://www.w3.org/1999/xlink" x="0px" y="0px"
	 viewBox="0 0 343.2 63.5" style="enable-background:new 0 0 343.2 63.5;" xml:space="preserve">
<style type="text/css">
	.st0{fill:#C6C6C6;stroke:#C6C6C6;stroke-width:0.2;stroke-miterlimit:10;}
	.st1{fill:#FFFFFF;stroke:#FFFFFF;stroke-width:0.25;}
</style>
<g>
	<path class="st0" d="M238.3,76.5c27.5-19.2,55.6-38.3,87.4-38.3l0,0c22.2,0,46.5,9.3,73.9,34.5l0,0l0,0c0.1,0.1,0.3,0.1,0.5,0.1
		l0,0c0.2-0.1,0.2-0.2,0.1-0.3l0,0c-27.5-25.3-52-34.7-74.6-34.7l0,0c-32.4,0-60.4,19.3-88,38.5l0,0c-27.5,19.2-54.5,38.3-84.2,38.3
		l0,0c-22.6,0-47.1-11.1-74.9-42.1l0,0c-0.1-0.1-0.3-0.1-0.5-0.1l0,0c-0.2,0.1-0.2,0.2-0.2,0.3l0,0c27.8,31,52.4,42.3,75.5,42.3l0,0
		C183.7,115,210.7,95.7,238.3,76.5L238.3,76.5z"/>
	<path class="st0" d="M116.4,126.8c33.1,0,81.8-17.1,129.8-34.2l0,0c47.9-17.1,95.1-34.2,124.6-34.2l0,0c14.5,0,24.6,4,28.8,14.2
		l0,0c0,0.1,0.2,0.2,0.4,0.2l0,0c0.2,0,0.3-0.1,0.3-0.3l0,0C396.1,62.2,385.5,58,370.8,58l0,0c-29.9,0-77,17.1-125,34.2l0,0
		c-47.9,17.1-96.7,34.2-129.4,34.2l0,0c-12.2,0-22.1-2.4-29-7.9l0,0c-6.9-5.6-10.8-14.4-10.8-27.4l0,0c0-5.4,0.7-11.5,2.1-18.4l0,0
		c0-0.1-0.1-0.2-0.3-0.2l0,0c-0.2,0-0.4,0.1-0.4,0.2l0,0c-1.4,6.9-2.1,13.1-2.1,18.5l0,0c0,13.1,3.9,22,11,27.7l0,0
		C93.9,124.4,104.1,126.8,116.4,126.8L116.4,126.8C116.4,126.8,116.4,126.8,116.4,126.8L116.4,126.8z"/>
	<path class="st0" d="M170.6,148.6c63.9,0,142.4-45.3,189.1-67.9l0,0c15.5-7.5,27.6-12.5,34.2-12.5l0,0c3.4,0,5.3,1.3,5.7,4.4l0,0
		c0,0.1,0.2,0.2,0.4,0.2l0,0c0.2,0,0.3-0.1,0.3-0.2l0,0c-0.3-3.3-2.6-4.9-6.4-4.9l0,0c-7,0-19,5.1-34.6,12.6l0,0
		c-15.6,7.5-34.7,17.6-55.6,27.6l0,0c-41.8,20.1-90.9,40.2-133.1,40.1l0,0c-41.1,0-75.9-18.9-91.9-75.6l0,0c0-0.1-0.2-0.2-0.4-0.2
		l0,0c-0.2,0-0.3,0.1-0.3,0.2l0,0C93.9,129.3,129,148.6,170.6,148.6L170.6,148.6L170.6,148.6L170.6,148.6z"/>
	<path class="st0" d="M160.4,94.1c47.8,0,95-17.6,135-35.2l0,0c39.9-17.6,72.8-35.1,91.2-35.1l0,0c5.4,0,9.5,1.5,12.4,4.9l0,0
		c2.9,3.4,4.4,8.8,4.4,16.6l0,0c0,7-1.3,16-3.9,27.3l0,0l0,0c0,0.1,0.1,0.2,0.3,0.2l0,0c0.2,0,0.4-0.1,0.4-0.2l0,0
		c2.6-11.3,3.9-20.3,3.9-27.4l0,0c0-7.8-1.5-13.3-4.5-16.8l0,0c-3-3.5-7.4-5.1-13.1-5.1l0,0c-19.1,0-51.7,17.6-91.7,35.2l0,0
		c-40,17.6-87.1,35.1-134.5,35.1l0,0c-27.6,0-55.3-5.9-81.9-21.2l0,0c-0.1-0.1-0.4-0.1-0.5,0l0,0c-0.1,0.1-0.1,0.2,0,0.3l0,0
		C104.8,88.1,132.7,94.1,160.4,94.1L160.4,94.1L160.4,94.1L160.4,94.1z"/>
	<path class="st0" d="M179.2,122.1c37,0,73.6-14.5,107-29l0,0c33.4-14.5,63.6-28.9,87.3-28.9l0,0c9.9,0,18.6,2.5,26.1,8.5l0,0
		c0.1,0.1,0.3,0.1,0.5,0.1l0,0c0.2-0.1,0.2-0.2,0.1-0.3l0,0c-7.6-6.1-16.7-8.7-26.7-8.7l0,0c-24.2,0-54.3,14.5-87.7,29l0,0
		c-33.4,14.5-70,28.9-106.6,28.9l0,0c-34.1,0-68.4-12.5-100.6-49.2l0,0c-0.1-0.1-0.3-0.1-0.5-0.1l0,0c-0.2,0.1-0.2,0.2-0.2,0.3l0,0
		C110.2,109.5,144.8,122.1,179.2,122.1L179.2,122.1L179.2,122.1L179.2,122.1z"/>
	<path class="st0" d="M192.8,51.8c52-12.5,111-24.9,153.1-24.9l0,0c16.9,0,31,2,40.9,6.8l0,0c9.9,4.8,15.6,12.3,15.6,23.5l0,0
		c0,4.5-0.9,9.6-2.9,15.4l0,0c0,0.1,0.1,0.2,0.3,0.3l0,0c0.2,0,0.4-0.1,0.4-0.2l0,0c2-5.8,2.9-10.9,2.9-15.5l0,0
		c0-11.3-5.8-19-15.9-23.8l0,0c-10.1-4.9-24.4-6.9-41.4-6.9l0,0c-42.4,0-101.4,12.5-153.4,24.9l0,0c-51.9,12.5-97,24.9-110.8,24.9
		l0,0c-1.4,0-2.5-0.1-3.2-0.4l0,0c-0.7-0.3-1-0.6-1-1.2l0,0c0-0.5,0.3-1.2,1.1-2.1l0,0c0.1-0.1,0-0.2-0.2-0.3l0,0
		c-0.2-0.1-0.4,0-0.5,0.1l0,0c-0.8,0.9-1.1,1.7-1.1,2.3l0,0c0,0.7,0.5,1.2,1.3,1.5l0,0c0.9,0.3,2,0.5,3.5,0.5l0,0
		C96,76.8,140.8,64.3,192.8,51.8L192.8,51.8z"/>
	<path class="st0" d="M110.6,81.5c28.5,0,56.8-17.8,86.6-35.6l0,0c29.8-17.8,61.2-35.5,95.4-35.5l0,0c32.3,0,67.6,15.7,107,62.3l0,0
		c0.1,0.1,0.3,0.1,0.5,0.1l0,0c0.2-0.1,0.2-0.2,0.2-0.3l0,0C360.8,25.9,325.4,10,292.6,10l0,0c-34.7,0-66.1,17.8-95.9,35.6l0,0
		c-29.8,17.8-58.1,35.5-86.1,35.5l0,0c-10.6,0-21.2-2.5-32-8.6l0,0c-0.2-0.1-0.4-0.1-0.5,0l0,0c-0.1,0.1-0.1,0.2,0,0.3l0,0
		C88.9,78.9,99.8,81.5,110.6,81.5L110.6,81.5C110.6,81.5,110.6,81.5,110.6,81.5L110.6,81.5z"/>
	<path class="st0" d="M84.5,87.8c6.5,0,16.5-5.3,29.6-13.1l0,0c13.1-7.8,29.2-18.2,47.3-28.6l0,0c36.1-20.8,80.2-41.6,124-41.6l0,0
		c40.1,0,80.2,17.3,114.2,68.1l0,0l0,0c0.1,0.1,0.3,0.2,0.5,0.1l0,0c0.2,0,0.3-0.2,0.2-0.3l0,0c-34-50.9-74.4-68.4-114.9-68.4l0,0
		c-66.3,0-132.4,46.9-171.8,70.3l0,0c-13.1,7.8-23.3,13-29.1,12.9l0,0c-2.1,0-3.5-0.6-4.7-2l0,0c-1.1-1.4-1.7-3.5-1.7-6.6l0,0
		c0-1.8,0.2-3.8,0.6-6.2l0,0c0-0.1-0.1-0.2-0.3-0.2l0,0c-0.2,0-0.4,0.1-0.4,0.2l0,0c-0.4,2.4-0.6,4.4-0.6,6.2l0,0
		c0,3.1,0.6,5.3,1.8,6.8l0,0C80.3,87.1,82.1,87.8,84.5,87.8L84.5,87.8C84.4,87.8,84.5,87.8,84.5,87.8L84.5,87.8z"/>
	<path class="st0" d="M239.2,43.5c42.9-16.8,83.1-33.6,112.4-33.6l0,0c14.2,0,25.8,3.9,34.2,13.7l0,0c8.3,9.8,13.2,25.5,13.7,49l0,0
		c0,0.1,0.2,0.2,0.4,0.2l0,0c0.2,0,0.4-0.1,0.4-0.2l0,0c-0.5-23.6-5.4-39.3-13.8-49.2l0,0c-8.4-9.9-20.4-13.9-34.8-13.9l0,0
		c-29.7,0-70,16.9-112.8,33.7l0,0C196,60,150.5,76.8,110.7,76.8l0,0c-11.2,0-22-1.3-32.1-4.3l0,0c-0.2-0.1-0.4,0-0.5,0.1l0,0
		c-0.1,0.1,0,0.2,0.2,0.3l0,0c10.3,3.1,21.2,4.4,32.5,4.4l0,0C150.8,77.2,196.4,60.3,239.2,43.5L239.2,43.5z"/>
	<path class="st0" d="M128.1,99.8c35,0,80.1-19.6,123.6-39.1l0,0c43.5-19.6,85.4-39.1,113.3-39.1l0,0c10.7,0,19.3,2.8,25.4,9.7l0,0
		c6,6.8,9.4,17.7,9.4,33.7l0,0c0,2.4-0.1,5-0.2,7.7l0,0c0,0.1,0.2,0.2,0.4,0.2l0,0c0.2,0,0.4-0.1,0.4-0.2l0,0
		c0.2-2.7,0.2-5.2,0.2-7.7l0,0c0-16-3.4-26.9-9.5-33.9l0,0c-6.1-6.9-15.1-9.9-26-9.9l0,0c-28.4,0-70.2,19.6-113.7,39.1l0,0
		c-43.5,19.6-88.6,39.1-123.2,39.1l0,0c-21.3,0-38.7-7.4-49.4-26.9l0,0c-0.1-0.1-0.3-0.2-0.5-0.1l0,0c-0.2,0-0.3,0.2-0.2,0.3l0,0
		C88.7,92.3,106.4,99.8,128.1,99.8L128.1,99.8C128.1,99.8,128.1,99.8,128.1,99.8L128.1,99.8z"/>
	<path class="st0" d="M86.5,76.4c7.3,0,17.5-4.1,30.2-10.3l0,0c12.7-6.1,27.9-14.3,44.9-22.5l0,0C195.5,27.3,236.4,11,278.4,11l0,0
		c41,0,83.1,15.5,121.2,61.7l0,0c0.1,0.1,0.3,0.1,0.5,0.1l0,0c0.2-0.1,0.3-0.2,0.2-0.3l0,0c-38.1-46.3-80.5-62-121.9-62l0,0
		c-63.5,0-124,36.8-162.1,55.2l0,0c-12.7,6.1-22.9,10.2-29.7,10.2l0,0c-3.5,0-6.1-1-7.9-3.4l0,0c-0.1-0.1-0.3-0.2-0.5-0.1l0,0
		c-0.2,0.1-0.3,0.2-0.2,0.3l0,0C79.8,75.2,82.8,76.4,86.5,76.4L86.5,76.4C86.5,76.4,86.5,76.4,86.5,76.4L86.5,76.4z"/>
	<path class="st0" d="M123.1,139c28.8,0,68.3-18.9,110.3-37.8l0,0c42-18.9,86.6-37.7,125.1-37.7l0,0c14.7,0,28.6,2.7,41.2,9.3l0,0
		c0.2,0.1,0.4,0.1,0.5,0l0,0c0.1-0.1,0.1-0.2,0-0.3l0,0c-12.7-6.6-26.8-9.4-41.7-9.4l0,0C319.6,63.1,275,82,233,100.9l0,0
		c-42,18.9-81.6,37.8-109.9,37.7l0,0c-13.3,0-24.2-4.1-31.9-14.4l0,0C83.4,113.8,79,97.3,78.7,72.6l0,0c0-0.1-0.2-0.2-0.4-0.2l0,0
		c-0.2,0-0.4,0.1-0.4,0.2l0,0c0.3,24.7,4.7,41.3,12.5,51.7l0,0C98.2,134.7,109.5,139,123.1,139L123.1,139
		C123.1,139,123.1,139,123.1,139L123.1,139z"/>
	<path class="st0" d="M247.9,82.1c29.4-14.2,59.1-28.4,90.8-28.4l0,0c19.3,0,39.5,5.3,61,19l0,0l0,0c0.1,0.1,0.4,0.1,0.5,0l0,0
		c0.2-0.1,0.2-0.2,0-0.3l0,0c-21.5-13.9-41.9-19.2-61.5-19.2l0,0c-32.1,0-61.9,14.3-91.3,28.5l0,0C218,96,189,110.2,158.7,110.2l0,0
		c-25.2,0-51.5-9.8-80-37.7l0,0c-0.1-0.1-0.3-0.1-0.5-0.1l0,0c-0.2,0.1-0.2,0.2-0.1,0.3l0,0c28.5,27.9,55.1,37.9,80.6,37.9l0,0
		C189.4,110.6,218.5,96.3,247.9,82.1L247.9,82.1z"/>
	<path class="st0" d="M92.7,93.7c21.3,0,60.9-14.7,105.1-29.3l0,0c44.2-14.6,92.9-29.2,132-29.2l0,0c32.1,0,57.9,9.7,69.8,37.5l0,0
		c0.1,0.1,0.3,0.2,0.4,0.2l0,0c0.2,0,0.3-0.1,0.3-0.3l0,0c-11.9-27.8-38.1-37.8-70.5-37.8l0,0c-39.5,0-88.2,14.7-132.4,29.3l0,0
		c-44.2,14.6-83.8,29.2-104.7,29.2l0,0c-5,0-8.9-0.8-11.5-2.7l0,0c-2.7-1.9-4.1-4.8-4.1-8.9l0,0c0-2.5,0.5-5.5,1.6-9l0,0
		c0-0.1-0.1-0.2-0.3-0.3l0,0c-0.2,0-0.4,0.1-0.4,0.2l0,0c-1.1,3.5-1.6,6.5-1.6,9.1l0,0c0,4.2,1.5,7.3,4.3,9.2l0,0
		C83.4,92.8,87.6,93.7,92.7,93.7L92.7,93.7L92.7,93.7L92.7,93.7z"/>
	<path class="st0" d="M130.6,147c61.4,0,159.1-44.2,218.5-66.2l0,0c19.8-7.3,35.4-12.2,43.7-12.2l0,0c4.3,0,6.5,1.2,6.8,4.1l0,0
		c0,0.1,0.2,0.2,0.4,0.2l0,0c0.2,0,0.4-0.1,0.3-0.2l0,0c-0.2-3-3-4.5-7.6-4.5l0,0c-8.7,0-24.2,4.9-44.1,12.3l0,0
		c-19.8,7.4-43.9,17.2-69.4,27l0,0c-51.1,19.6-108.1,39.2-148.7,39.2l0,0c-32.7,0-54.8-12.6-54.9-48.5l0,0c0-7.5,1-15.9,3-25.4l0,0
		c0-0.1-0.1-0.2-0.3-0.2l0,0c-0.2,0-0.4,0.1-0.4,0.2l0,0c-2,9.5-3,18-3,25.5l0,0c0,18,5.6,30.2,15.3,37.9l0,0
		C100.1,143.7,114,147,130.6,147L130.6,147C130.5,147,130.6,147,130.6,147L130.6,147z"/>
</g>
<g>
	<path class="st1" d="M297.7,107.3c21.2-8.3,40.3-18.3,59.9-25.1l0,0c13-4.5,26.2-7.6,40.3-8l0,0c1.1,0,2-0.6,1.9-1.2l0,0
		c0-0.7-1-1.2-2.1-1.1l0,0c-15,0.4-28.9,3.7-42.2,8.4l0,0c-13.4,4.6-26.3,10.6-39.6,16.5l0,0c-26.7,11.8-55,23.2-91.2,23.2l0,0
		c-36.8,0-82.4-11.8-143.5-47.6l0,0c-0.8-0.5-2.1-0.5-2.8,0l0,0c-0.8,0.5-0.8,1.2,0,1.7l0,0c61.4,36.1,108,48.3,146.3,48.3l0,0
		C253,122.3,276.5,115.6,297.7,107.3L297.7,107.3z"/>
	<path class="st1" d="M109.9,79.5c23.6,0,44.9-8.9,66-19.8l0,0c21.1-10.9,42-23.8,64.1-32.4l0,0c14.8-5.7,30-9.4,46.1-9.4l0,0
		c15.5,0,32.1,3.4,50.4,12.1l0,0c18.2,8.7,38.1,22.7,59.8,43.7l0,0l0,0c0.6,0.6,1.8,0.7,2.8,0.4l0,0c1-0.3,1.3-1.1,0.7-1.6l0,0
		c-21.9-21.1-41.9-35.3-60.7-44.3l0,0c-18.8-8.9-36.3-12.6-52.9-12.6l0,0c-25.9,0-48.8,8.9-70.5,19.8l0,0
		c-21.7,10.9-42.3,23.9-63.2,32.4l0,0c-14,5.7-28,9.4-42.5,9.4l0,0c-9.4,0-19-1.5-29.1-5.1l0,0c-1-0.3-2.2-0.2-2.8,0.4l0,0
		c-0.6,0.6-0.3,1.3,0.7,1.6l0,0C89.4,77.9,99.8,79.5,109.9,79.5L109.9,79.5C109.8,79.5,109.9,79.5,109.9,79.5L109.9,79.5z"/>
	<path class="st1" d="M147.3,135.6c11.1,0,21.8-3.5,32.5-9l0,0c10.7-5.5,21.4-13,32.3-21.4l0,0c21.8-16.7,44.3-36.6,68.1-49.7l0,0
		c15.8-8.8,32.1-14.5,48.7-14.5l0,0c10.3,0,21,2.2,32.2,7.3l0,0c11.2,5.2,22.9,13.3,35.1,25.2l0,0l0,0c0.6,0.6,1.8,0.7,2.8,0.4l0,0
		c1-0.3,1.3-1.1,0.7-1.6l0,0c-12.3-12.1-24.3-20.5-36-25.9l0,0c-11.8-5.4-23.4-7.8-34.7-7.8l0,0c-16,0-31,4.7-45.3,11.9l0,0
		c-14.3,7.2-28,16.8-41.3,27l0,0c-26.5,20.4-51.6,43-75.3,51.7l0,0c-6.7,2.5-13.3,3.9-19.6,3.9l0,0c-5.3,0-10.5-0.9-15.8-3l0,0
		c-5.3-2.1-10.8-5.4-16.3-10.2l0,0c-11-9.5-22.2-24.7-33.5-47.3l0,0c-0.3-0.6-1.4-1-2.5-0.8l0,0c-1.1,0.2-1.7,0.8-1.4,1.5l0,0
		c8.5,17,17,30,25.5,39.5l0,0c8.5,9.6,17.1,15.7,25.9,19.2l0,0C135.2,134.5,141.2,135.6,147.3,135.6L147.3,135.6
		C147.3,135.6,147.3,135.6,147.3,135.6L147.3,135.6z"/>
	<path class="st1" d="M193.1,104c27.9,0,51.2-6.2,71.8-13.8l0,0c20.5-7.6,38.4-16.7,55.6-22.6l0,0c11.4-4,22.5-6.5,33.7-6.5l0,0
		c13.1,0,26.8,3.4,42.3,12.8l0,0l0,0c0.8,0.5,2,0.5,2.8,0l0,0c0.8-0.5,0.8-1.2,0-1.7l0,0c-15.9-9.6-30.7-13.5-45.1-13.5l0,0
		c-12.3,0-24,2.8-35.7,6.9l0,0c-11.8,4.1-23.6,9.5-36.2,14.8l0,0c-25.2,10.7-53.3,21.2-89.2,21.2l0,0c-30.4,0-66.7-7.6-112-29.4l0,0
		c-0.8-0.4-2.1-0.3-2.8,0.2l0,0c-0.7,0.5-0.6,1.3,0.3,1.7l0,0C124.2,96.1,161.5,104,193.1,104L193.1,104L193.1,104L193.1,104z"/>
	<path class="st1" d="M252.5,138.3c9.9-3.7,18.8-8.8,27-14.6l0,0c16.4-11.6,30.1-26.1,43.7-37.8l0,0c9-7.8,18.1-14.4,27.4-18l0,0
		c5.3-2.1,10.8-3.2,16.4-3.2l0,0c8.6,0,18.2,2.6,29.4,9.2l0,0l0,0c0.8,0.5,2.1,0.5,2.8,0l0,0c0.8-0.5,0.8-1.2,0-1.7l0,0
		c-11.6-6.8-22.2-9.9-32.3-9.9l0,0c-10,0-18.9,3-27.2,7.7l0,0c-8.3,4.7-16.1,11-23.9,18l0,0c-15.7,14-31.7,30.7-51.4,41.7l0,0
		c-13.2,7.3-27.8,12.1-45.1,12.1l0,0c-16.4,0-35.5-4.3-58.2-15.1l0,0c-22.8-10.8-49.1-28.2-79.8-54.3l0,0c-0.6-0.5-1.9-0.7-2.8-0.3
		l0,0c-0.9,0.4-1.1,1.1-0.5,1.6l0,0c30.8,26.2,57.3,43.7,80.5,54.8l0,0c23.2,11.1,43.2,15.6,60.8,15.6l0,0
		C231.6,144.2,242.6,142,252.5,138.3L252.5,138.3z"/>
	<path class="st1" d="M130.8,87.6c29.9,0,58.9-11.5,86.4-25.5l0,0C244.8,48,270.9,31.1,294.6,20l0,0c15.8-7.4,30.4-12.2,43.1-12.2
		l0,0c5.9,0,11.4,1,16.8,3.2l0,0c5.4,2.2,10.6,5.8,15.5,10.9l0,0c9.9,10.2,18.7,26.7,25.9,51.4l0,0c0.2,0.6,1.2,1.1,2.3,1l0,0
		c1.1-0.1,1.8-0.7,1.6-1.4l0,0c-5.4-18.6-11.8-32.7-18.9-43l0,0c-7.2-10.3-15.1-17-24.1-20.8l0,0c-6-2.5-12.4-3.6-19.1-3.6l0,0
		c-10.8,0-22.1,2.9-33.8,7.6l0,0c-11.7,4.6-23.9,11-36.6,18l0,0C242.1,45,214.9,61.8,187,73l0,0c-18.6,7.4-37.4,12.3-56.2,12.3l0,0
		c-16.5,0-33-3.7-49.8-13l0,0c-0.8-0.4-2.1-0.4-2.8,0.1l0,0c-0.8,0.5-0.7,1.2,0.1,1.7l0,0C95.6,83.6,113.2,87.6,130.8,87.6
		L130.8,87.6C130.8,87.6,130.8,87.6,130.8,87.6L130.8,87.6z"/>
</g>
</svg>
