<?xml version="1.0" encoding="utf-8"?>
<!-- Generator: Adobe Illustrator 19.1.1, SVG Export Plug-In . SVG Version: 6.00 Build 0)  -->
<svg version="1.1" id="Calque_1" xmlns="http://www.w3.org/2000/svg" xmlns:xlink="http://www.w3.org/1999/xlink" x="0px" y="0px"
	 viewBox="0 0 78.6 63.5" style="enable-background:new 0 0 78.6 63.5;" xml:space="preserve">
<style type="text/css">
	.st0{fill:#C6C6C6;stroke:#C6C6C6;stroke-width:0.2;stroke-miterlimit:10;}
	.st1{fill:#0069B4;stroke:#0069B4;stroke-width:0.25;}
	.st2{fill:#008BD2;stroke:#008BD2;stroke-width:0.25;}
	.st3{fill:#B80E80;stroke:#B80E80;stroke-width:0.25;}
	.st4{fill:#5D686E;stroke:#5D686E;stroke-width:0.25;}
	.st5{fill:#F39200;stroke:#F39200;stroke-width:0.25;}
	.st6{fill:#AFCA0B;stroke:#AFCA0B;stroke-width:0.25;}
</style>
<g>
	<path class="st0" d="M40.5,32.6C34.8,25.8,29,19.1,22.4,19.1l0,0c-4.6,0-9.6,3.3-15.3,12.1l0,0l0,0c0,0-0.1,0-0.1,0l0,0
		c0,0,0-0.1,0-0.1l0,0c5.7-8.9,10.8-12.2,15.5-12.2l0,0c6.7,0,12.5,6.8,18.3,13.5l0,0c5.7,6.8,11.3,13.5,17.5,13.5l0,0
		c4.7,0,9.8-3.9,15.5-14.8l0,0c0,0,0.1-0.1,0.1,0l0,0c0,0,0.1,0.1,0,0.1l0,0C68,42.1,62.9,46.1,58.1,46.1l0,0
		C51.9,46.1,46.3,39.3,40.5,32.6L40.5,32.6z"/>
	<path class="st0" d="M65.8,50.2c-6.9,0-17-6-26.9-12l0,0c-9.9-6-19.7-12-25.8-12l0,0c-3,0-5.1,1.4-6,5l0,0c0,0-0.1,0.1-0.1,0.1l0,0
		c0,0-0.1-0.1-0.1-0.1l0,0C7.8,27.5,10,26,13,26l0,0c6.2,0,16,6,25.9,12l0,0c9.9,6,20.1,12,26.8,12l0,0c2.5,0,4.6-0.8,6-2.8l0,0
		c1.4-2,2.2-5.1,2.2-9.6l0,0c0-1.9-0.1-4.1-0.4-6.5l0,0c0,0,0-0.1,0.1-0.1l0,0c0,0,0.1,0,0.1,0.1l0,0c0.3,2.4,0.4,4.6,0.4,6.5l0,0
		c0,4.6-0.8,7.7-2.3,9.7l0,0C70.5,49.4,68.4,50.2,65.8,50.2L65.8,50.2C65.8,50.2,65.8,50.2,65.8,50.2L65.8,50.2z"/>
	<path class="st0" d="M54.6,57.9C41.3,57.9,25,42,15.3,34l0,0c-3.2-2.6-5.7-4.4-7.1-4.4l0,0c-0.7,0-1.1,0.4-1.2,1.6l0,0
		c0,0,0,0.1-0.1,0.1l0,0c0,0-0.1,0-0.1-0.1l0,0C7,30,7.5,29.5,8.3,29.5l0,0c1.5,0,3.9,1.8,7.2,4.4l0,0c3.2,2.7,7.2,6.2,11.5,9.7l0,0
		c8.7,7.1,18.8,14.1,27.6,14.1l0,0c8.5,0,15.8-6.6,19.1-26.6l0,0c0,0,0-0.1,0.1-0.1l0,0c0,0,0.1,0,0.1,0.1l0,0
		C70.5,51.1,63.2,57.9,54.6,57.9L54.6,57.9L54.6,57.9L54.6,57.9z"/>
	<path class="st0" d="M56.7,38.7c-9.9,0-19.7-6.2-28-12.4l0,0C20.4,20.2,13.6,14,9.8,14l0,0c-1.1,0-2,0.5-2.6,1.7l0,0
		c-0.6,1.2-0.9,3.1-0.9,5.8l0,0c0,2.5,0.3,5.6,0.8,9.6l0,0l0,0c0,0,0,0.1-0.1,0.1l0,0c0,0-0.1,0-0.1-0.1l0,0c-0.5-4-0.8-7.1-0.8-9.6
		l0,0c0-2.8,0.3-4.7,0.9-5.9l0,0c0.6-1.2,1.5-1.8,2.7-1.8l0,0c4,0,10.7,6.2,19,12.4l0,0c8.3,6.2,18.1,12.3,27.9,12.3l0,0
		c5.7,0,11.5-2.1,17-7.5l0,0c0,0,0.1,0,0.1,0l0,0c0,0,0,0.1,0,0.1l0,0C68.2,36.6,62.4,38.7,56.7,38.7L56.7,38.7L56.7,38.7L56.7,38.7
		z"/>
	<path class="st0" d="M52.8,48.6c-7.7,0-15.3-5.1-22.2-10.2l0,0c-6.9-5.1-13.2-10.2-18.1-10.2l0,0c-2,0-3.9,0.9-5.4,3l0,0
		c0,0-0.1,0-0.1,0l0,0c0,0,0-0.1,0-0.1l0,0c1.6-2.2,3.5-3.1,5.5-3.1l0,0c5,0,11.3,5.1,18.2,10.2l0,0c6.9,5.1,14.5,10.2,22.1,10.2
		l0,0c7.1,0,14.2-4.4,20.9-17.3l0,0c0,0,0.1-0.1,0.1,0l0,0c0,0,0.1,0.1,0,0.1l0,0C67.1,44.1,59.9,48.6,52.8,48.6L52.8,48.6
		L52.8,48.6L52.8,48.6z"/>
	<path class="st0" d="M50,23.9c-10.8-4.4-23-8.8-31.8-8.8l0,0c-3.5,0-6.4,0.7-8.5,2.4l0,0c-2.1,1.7-3.2,4.3-3.2,8.3l0,0
		c0,1.6,0.2,3.4,0.6,5.4l0,0c0,0,0,0.1-0.1,0.1l0,0c0,0-0.1,0-0.1-0.1l0,0c-0.4-2-0.6-3.8-0.6-5.4l0,0c0-4,1.2-6.7,3.3-8.4l0,0
		c2.1-1.7,5.1-2.4,8.6-2.4l0,0c8.8,0,21,4.4,31.8,8.8l0,0c10.8,4.4,20.1,8.8,23,8.8l0,0c0.3,0,0.5,0,0.7-0.1l0,0
		c0.1-0.1,0.2-0.2,0.2-0.4l0,0c0-0.2-0.1-0.4-0.2-0.7l0,0c0,0,0-0.1,0-0.1l0,0c0,0,0.1,0,0.1,0l0,0c0.2,0.3,0.2,0.6,0.2,0.8l0,0
		c0,0.2-0.1,0.4-0.3,0.5l0,0c-0.2,0.1-0.4,0.2-0.7,0.2l0,0C70.1,32.6,60.8,28.3,50,23.9L50,23.9z"/>
	<path class="st0" d="M67,34.3c-5.9,0-11.8-6.3-18-12.5l0,0C42.9,15.5,36.4,9.3,29.3,9.3l0,0c-6.7,0-14,5.5-22.2,21.9l0,0
		c0,0-0.1,0.1-0.1,0l0,0c0,0-0.1-0.1,0-0.1l0,0c8.2-16.4,15.5-22,22.3-22l0,0c7.2,0,13.7,6.3,19.9,12.5l0,0
		c6.2,6.3,12,12.5,17.9,12.5l0,0c2.2,0,4.4-0.9,6.6-3l0,0c0,0,0.1,0,0.1,0l0,0c0,0,0,0.1,0,0.1l0,0C71.5,33.4,69.3,34.3,67,34.3
		L67,34.3C67,34.3,67,34.3,67,34.3L67,34.3z"/>
	<path class="st0" d="M72.4,36.5c-1.3,0-3.4-1.9-6.1-4.6l0,0c-2.7-2.7-6.1-6.4-9.8-10.1l0,0C49,14.6,39.9,7.3,30.8,7.3l0,0
		c-8.3,0-16.6,6.1-23.7,24l0,0l0,0c0,0-0.1,0.1-0.1,0l0,0c0,0-0.1-0.1,0-0.1l0,0c7.1-17.9,15.4-24,23.8-24l0,0
		c13.8,0,27.5,16.5,35.6,24.7l0,0c2.7,2.7,4.8,4.6,6,4.6l0,0c0.4,0,0.7-0.2,1-0.7l0,0c0.2-0.5,0.4-1.2,0.4-2.3l0,0
		c0-0.6,0-1.3-0.1-2.2l0,0c0,0,0-0.1,0.1-0.1l0,0c0,0,0.1,0,0.1,0.1l0,0c0.1,0.8,0.1,1.6,0.1,2.2l0,0c0,1.1-0.1,1.9-0.4,2.4l0,0
		C73.3,36.3,72.9,36.5,72.4,36.5L72.4,36.5C72.4,36.5,72.4,36.5,72.4,36.5L72.4,36.5z"/>
	<path class="st0" d="M40.3,21C31.4,15,23.1,9.1,17,9.1l0,0c-2.9,0-5.4,1.4-7.1,4.8l0,0c-1.7,3.4-2.7,9-2.8,17.2l0,0
		c0,0,0,0.1-0.1,0.1l0,0c0,0-0.1,0-0.1-0.1l0,0C7,22.9,8.1,17.4,9.8,13.9l0,0C11.5,10.4,14,9,17,9l0,0c6.2,0,14.5,5.9,23.4,11.8l0,0
		c8.9,5.9,18.3,11.8,26.6,11.8l0,0c2.3,0,4.6-0.5,6.7-1.5l0,0c0,0,0.1,0,0.1,0l0,0c0,0,0,0.1,0,0.1l0,0c-2.1,1.1-4.4,1.5-6.7,1.5
		l0,0C58.7,32.8,49.2,26.9,40.3,21L40.3,21z"/>
	<path class="st0" d="M63.4,40.7c-7.3,0-16.6-6.9-25.6-13.8l0,0c-9-6.9-17.7-13.7-23.5-13.7l0,0c-2.2,0-4,1-5.3,3.4l0,0
		c-1.3,2.4-2,6.2-2,11.8l0,0c0,0.9,0,1.8,0,2.7l0,0c0,0,0,0.1-0.1,0.1l0,0c0,0-0.1,0-0.1-0.1l0,0c0-0.9,0-1.8,0-2.7l0,0
		c0-5.6,0.7-9.5,2-11.9l0,0c1.3-2.4,3.1-3.5,5.4-3.5l0,0c5.9,0,14.6,6.9,23.6,13.8l0,0c9,6.9,18.4,13.7,25.6,13.7l0,0
		c4.4,0,8-2.6,10.2-9.4l0,0c0,0,0.1-0.1,0.1,0l0,0c0,0,0.1,0.1,0,0.1l0,0C71.6,38.1,67.9,40.8,63.4,40.7L63.4,40.7
		C63.4,40.7,63.4,40.7,63.4,40.7L63.4,40.7z"/>
	<path class="st0" d="M72,32.5c-1.5,0-3.6-1.5-6.3-3.6l0,0c-2.6-2.2-5.8-5-9.3-7.9l0,0c-7-5.7-15.5-11.5-24.2-11.5l0,0
		C23.7,9.5,15,15,7.1,31.2l0,0c0,0-0.1,0.1-0.1,0l0,0c0,0-0.1-0.1,0-0.1l0,0C14.8,14.9,23.6,9.4,32.2,9.4l0,0
		c13.2,0,25.7,13,33.6,19.4l0,0c2.6,2.2,4.8,3.6,6.2,3.6l0,0c0.7,0,1.3-0.4,1.6-1.2l0,0c0,0,0.1-0.1,0.1,0l0,0c0,0,0.1,0.1,0,0.1
		l0,0C73.4,32.1,72.8,32.5,72,32.5L72,32.5C72,32.5,72,32.5,72,32.5L72,32.5z"/>
	<path class="st0" d="M64.4,54.5c-6,0-14.2-6.7-22.9-13.3l0,0c-8.7-6.6-18-13.3-26-13.3l0,0c-3.1,0-5.9,1-8.5,3.3l0,0
		c0,0-0.1,0-0.1,0l0,0c0,0,0-0.1,0-0.1l0,0c2.6-2.3,5.6-3.3,8.6-3.3l0,0c8.1,0,17.3,6.7,26,13.3l0,0c8.7,6.6,16.9,13.3,22.8,13.3
		l0,0c2.8,0,5-1.4,6.6-5.1l0,0c1.6-3.6,2.5-9.4,2.6-18.1l0,0c0,0,0-0.1,0.1-0.1l0,0c0,0,0.1,0,0.1,0.1l0,0c-0.1,8.7-1,14.5-2.6,18.2
		l0,0C69.6,53,67.3,54.5,64.4,54.5L64.4,54.5C64.4,54.5,64.4,54.5,64.4,54.5L64.4,54.5z"/>
	<path class="st0" d="M38.5,34.5c-6.1-5-12.3-10-18.8-10l0,0c-4,0-8.2,1.8-12.6,6.7l0,0l0,0c0,0-0.1,0-0.1,0l0,0c0,0,0-0.1,0-0.1
		l0,0c4.5-4.9,8.7-6.7,12.8-6.7l0,0c6.7,0,12.8,5,18.9,10l0,0c6.1,5,12.1,10,18.4,10l0,0c5.2,0,10.7-3.4,16.6-13.2l0,0
		c0,0,0.1,0,0.1,0l0,0c0,0,0,0.1,0,0.1l0,0C67.9,41,62.4,44.5,57.1,44.5l0,0C50.7,44.5,44.6,39.5,38.5,34.5L38.5,34.5z"/>
	<path class="st0" d="M70.7,38.6c-4.4,0-12.6-5.2-21.8-10.3l0,0C39.8,23.2,29.7,18,21.5,18l0,0c-6.7,0-12,3.4-14.5,13.2l0,0
		c0,0-0.1,0.1-0.1,0.1l0,0c0,0-0.1-0.1-0.1-0.1l0,0c2.5-9.8,7.9-13.3,14.6-13.3l0,0c8.2,0,18.3,5.2,27.5,10.3l0,0
		c9.2,5.1,17.4,10.3,21.7,10.3l0,0c1,0,1.8-0.3,2.4-0.9l0,0c0.6-0.7,0.9-1.7,0.9-3.1l0,0c0-0.9-0.1-1.9-0.3-3.2l0,0
		c0,0,0-0.1,0.1-0.1l0,0c0,0,0.1,0,0.1,0.1l0,0c0.2,1.2,0.3,2.3,0.3,3.2l0,0c0,1.5-0.3,2.6-0.9,3.2l0,0
		C72.7,38.3,71.8,38.6,70.7,38.6L70.7,38.6L70.7,38.6L70.7,38.6z"/>
	<path class="st0" d="M62.9,57.3c-12.7,0-33-15.5-45.3-23.3l0,0c-4.1-2.6-7.3-4.3-9.1-4.3l0,0c-0.9,0-1.4,0.4-1.4,1.4l0,0
		c0,0,0,0.1-0.1,0.1l0,0c0,0-0.1,0-0.1-0.1l0,0c0-1.1,0.6-1.6,1.6-1.6l0,0c1.8,0,5,1.7,9.1,4.3l0,0c4.1,2.6,9.1,6,14.4,9.5l0,0
		c10.6,6.9,22.4,13.8,30.8,13.8l0,0c6.8,0,11.4-4.4,11.4-17l0,0c0-2.6-0.2-5.6-0.6-8.9l0,0c0,0,0-0.1,0.1-0.1l0,0c0,0,0.1,0,0.1,0.1
		l0,0c0.4,3.4,0.6,6.3,0.6,9l0,0c0,6.3-1.2,10.6-3.2,13.3l0,0C69.2,56.2,66.3,57.3,62.9,57.3L62.9,57.3
		C62.9,57.3,62.9,57.3,62.9,57.3L62.9,57.3z"/>
</g>
<g>
	<path class="st1" d="M28.2,43.4c-4.4-2.9-8.4-6.4-12.4-8.8l0,0c-2.7-1.6-5.4-2.7-8.4-2.8l0,0c-0.2,0-0.4-0.2-0.4-0.4l0,0
		c0-0.2,0.2-0.4,0.4-0.4l0,0c3.1,0.1,6,1.3,8.8,2.9l0,0c2.8,1.6,5.5,3.7,8.2,5.8l0,0c5.5,4.2,11.4,8.2,18.9,8.2l0,0
		c7.6,0,17.1-4.1,29.8-16.7l0,0c0.2-0.2,0.4-0.2,0.6,0l0,0c0.2,0.2,0.2,0.4,0,0.6l0,0c-12.7,12.7-22.4,17-30.3,17l0,0
		C37.5,48.6,32.6,46.3,28.2,43.4L28.2,43.4z"/>
	<path class="st2" d="M67.2,33.6c-4.9,0-9.3-3.1-13.7-7l0,0c-4.4-3.8-8.7-8.4-13.3-11.4l0,0c-3.1-2-6.2-3.3-9.6-3.3l0,0
		c-3.2,0-6.7,1.2-10.4,4.3l0,0c-3.8,3.1-7.9,8-12.4,15.3l0,0l0,0c-0.1,0.2-0.4,0.3-0.6,0.1l0,0c-0.2-0.1-0.3-0.4-0.1-0.6l0,0
		c4.5-7.4,8.7-12.4,12.6-15.6l0,0c3.9-3.1,7.5-4.4,11-4.4l0,0c5.4,0,10.1,3.1,14.6,7l0,0c4.5,3.8,8.8,8.4,13.1,11.4l0,0
		c2.9,2,5.8,3.3,8.8,3.3l0,0c1.9,0,3.9-0.5,6-1.8l0,0c0.2-0.1,0.5-0.1,0.6,0.1l0,0c0.1,0.2,0.1,0.5-0.1,0.6l0,0
		C71.4,33,69.3,33.6,67.2,33.6L67.2,33.6C67.2,33.6,67.2,33.6,67.2,33.6L67.2,33.6z"/>
	<path class="st3" d="M59.4,53.3c-2.3,0-4.5-1.2-6.7-3.2l0,0c-2.2-1.9-4.4-4.6-6.7-7.5l0,0c-4.5-5.9-9.2-12.9-14.1-17.5l0,0
		c-3.3-3.1-6.6-5.1-10.1-5.1l0,0c-2.1,0-4.4,0.8-6.7,2.6l0,0c-2.3,1.8-4.8,4.7-7.3,8.9l0,0l0,0c-0.1,0.2-0.4,0.3-0.6,0.1l0,0
		C7,31.6,7,31.3,7.1,31.1l0,0c2.6-4.2,5-7.2,7.5-9.1l0,0c2.4-1.9,4.8-2.8,7.2-2.8l0,0c3.3,0,6.4,1.7,9.4,4.2l0,0
		c3,2.5,5.8,5.9,8.6,9.5l0,0c5.5,7.2,10.7,15.1,15.6,18.2l0,0c1.4,0.9,2.8,1.4,4.1,1.4l0,0c1.1,0,2.2-0.3,3.3-1.1l0,0
		c1.1-0.7,2.2-1.9,3.4-3.6l0,0c2.3-3.3,4.6-8.7,7-16.6l0,0c0.1-0.2,0.3-0.3,0.5-0.3l0,0c0.2,0.1,0.3,0.3,0.3,0.5l0,0
		c-1.8,6-3.5,10.5-5.3,13.9l0,0c-1.8,3.4-3.5,5.5-5.4,6.8l0,0C61.9,52.9,60.7,53.3,59.4,53.3L59.4,53.3
		C59.4,53.3,59.4,53.3,59.4,53.3L59.4,53.3z"/>
	<path class="st4" d="M49.9,42.2c-5.8,0-10.6-2.2-14.9-4.8l0,0c-4.3-2.7-8-5.9-11.5-7.9l0,0c-2.4-1.4-4.7-2.3-7-2.3l0,0
		c-2.7,0-5.5,1.2-8.8,4.5l0,0l0,0c-0.2,0.2-0.4,0.2-0.6,0l0,0C7,31.5,7,31.2,7.1,31l0,0c3.3-3.4,6.4-4.7,9.4-4.7l0,0
		c2.5,0,5,1,7.4,2.4l0,0c2.4,1.4,4.9,3.3,7.5,5.2l0,0c5.2,3.8,11.1,7.5,18.5,7.5l0,0c6.3,0,13.8-2.7,23.2-10.3l0,0
		c0.2-0.1,0.4-0.1,0.6,0.1l0,0c0.1,0.2,0.1,0.4-0.1,0.6l0,0C64.2,39.4,56.5,42.2,49.9,42.2L49.9,42.2L49.9,42.2L49.9,42.2z"/>
	<path class="st5" d="M37.6,54.3c-2.1-1.3-3.9-3.1-5.6-5.1l0,0c-3.4-4.1-6.3-9.2-9.1-13.3l0,0c-1.9-2.7-3.7-5-5.7-6.3l0,0
		c-1.1-0.7-2.2-1.1-3.4-1.1l0,0c-1.8,0-3.8,0.9-6.1,3.2l0,0l0,0c-0.2,0.2-0.4,0.2-0.6,0l0,0C7,31.5,7,31.2,7.1,31l0,0
		c2.4-2.4,4.6-3.5,6.7-3.5l0,0c2.1,0,3.9,1.1,5.6,2.7l0,0c1.7,1.6,3.3,3.9,5,6.3l0,0c3.3,4.9,6.6,10.8,10.7,14.7l0,0
		c2.7,2.6,5.8,4.3,9.4,4.3l0,0c3.4,0,7.4-1.5,12.1-5.3l0,0c4.7-3.8,10.2-9.9,16.5-19.1l0,0c0.1-0.2,0.4-0.2,0.6-0.1l0,0
		c0.2,0.1,0.2,0.4,0.1,0.6l0,0C67.4,40.8,61.9,47,57.1,50.9l0,0c-4.8,3.9-9,5.5-12.6,5.5l0,0C41.9,56.4,39.6,55.6,37.6,54.3
		L37.6,54.3z"/>
	<path class="st6" d="M62.8,36.4c-6.2,0-12.2-4-17.9-9l0,0c-5.7-5-11.1-10.9-16-14.8l0,0c-3.3-2.6-6.3-4.3-8.9-4.3l0,0
		c-1.2,0-2.4,0.3-3.5,1.1l0,0c-1.1,0.8-2.2,2-3.2,3.8l0,0c-2.1,3.6-3.9,9.4-5.4,18.1l0,0c0,0.2-0.3,0.4-0.5,0.3l0,0
		c-0.2,0-0.4-0.3-0.3-0.5l0,0c1.1-6.5,2.4-11.5,3.9-15.1l0,0c1.5-3.6,3.1-6,5-7.3l0,0c1.2-0.9,2.6-1.3,4-1.3l0,0c2.2,0,4.6,1,7,2.7
		l0,0c2.4,1.6,5,3.9,7.6,6.3l0,0c5.2,4.9,10.9,10.8,16.7,14.8l0,0c3.9,2.6,7.8,4.3,11.7,4.3l0,0c3.4,0,6.9-1.3,10.3-4.6l0,0
		c0.2-0.2,0.4-0.1,0.6,0l0,0c0.2,0.2,0.1,0.4,0,0.6l0,0C70.1,35,66.5,36.4,62.8,36.4L62.8,36.4C62.8,36.4,62.8,36.4,62.8,36.4
		L62.8,36.4z"/>
</g>
</svg>
