<?xml version="1.0" encoding="utf-8"?>
<!-- Generator: Adobe Illustrator 19.1.1, SVG Export Plug-In . SVG Version: 6.00 Build 0)  -->
<svg version="1.1" id="Calque_1" xmlns="http://www.w3.org/2000/svg" xmlns:xlink="http://www.w3.org/1999/xlink" x="0px" y="0px"
	 viewBox="-915 492.6 176.7 71.8" style="enable-background:new -915 492.6 176.7 71.8;" xml:space="preserve">
<style type="text/css">
	.st0{fill:none;stroke:#C6C7C8;stroke-width:0.41;stroke-linecap:round;stroke-miterlimit:10;}
	.st1{fill:none;stroke:#959899;stroke-width:0.41;stroke-linecap:round;stroke-miterlimit:10;}
	.st2{fill:#626A71;}
	.st3{fill:#056AB0;}
	.st4{fill:#078ACC;}
	.st5{fill:#981B79;}
	.st6{fill:#DC931A;}
	.st7{fill:#B7C72A;}
</style>
<title>logofooter</title>
<path class="st0" d="M-913.6,524.5c40.2-63.1,52.9,54.2,86.1,0"/>
<path class="st0" d="M-912.1,525.6c9.1-5.9,57.1,81.2,84.6-1.2"/>
<path class="st0" d="M-913.6,524.5c31.2-18.9,31.2,46.5,86.1,0"/>
<path class="st0" d="M-913.7,524.4c-9.2-66.5,40.1,43,86.2,0.1"/>
<path class="st0" d="M-913.6,524.5c-3.6-66.6,83.3,24.3,86.1,0"/>
<path class="st0" d="M-913.6,524.5c49.2-47.1,71.2,79.6,86.1,0"/>
<path class="st1" d="M-913.6,524.5c16.4-18.7,51.8,71.5,86.1,0"/>
<path class="st0" d="M-913.6,524.5c37.2-74.4,60.8,24.2,86.1,0"/>
<path class="st0" d="M-913.6,524.5c34.6-85.6,78,33.3,86.1,0"/>
<g>
	<rect x="-818.3" y="519.7" class="st2" width="67.5" height="0.3"/>
	<path class="st2" d="M-801.4,526.9v9.8c-0.1,3.2-2.9,5.8-6.1,5.6c-3.1-0.1-5.5-2.6-5.6-5.6v-9.8h1.9v9.8c0,2.2,1.8,3.9,3.9,3.9
		s3.9-1.8,3.9-3.9v-9.8H-801.4z"/>
	<path class="st2" d="M-798.4,526.9h5.5c2,0,3.6,1.6,3.6,3.7c0,0.7-0.2,1.5-0.6,2.1l0,0l0,0c0.6,0.2,1.2,0.6,1.6,1.1
		c0.9,0.9,1.5,2.2,1.5,3.5c0,2.7-2.3,5-5,5h-6.7L-798.4,526.9L-798.4,526.9L-798.4,526.9z M-792.9,532.3c1,0,1.8-0.8,1.8-1.8
		s-0.8-1.8-1.8-1.8h-3.6v3.5H-792.9L-792.9,532.3z M-791.8,540.4c1.7-0.1,3-1.5,3-3.1c0-1.7-1.3-3-3-3.1h-4.7v6.2H-791.8z"/>
	<path class="st2" d="M-784.7,526.9h9.7v1.9h-7.8v3.6h4.3v1.9h-4.3v8h-1.9L-784.7,526.9L-784.7,526.9z"/>
	<path class="st2" d="M-761.6,538.2l1.5,1.1c-1.5,2-3.9,3.2-6.4,3.2c-4.4,0-8.1-3.6-8.1-8c0-4.4,3.6-8.1,8-8.1
		c2.5,0,4.9,1.2,6.5,3.2l-1.5,1.1c-1.1-1.6-3-2.5-4.9-2.5c-3.4,0-6.1,2.8-6.1,6.2c0,3.4,2.8,6.1,6.2,6.1
		C-764.6,540.6-762.8,539.7-761.6,538.2z"/>
</g>
<path class="st3" d="M-891.9,536.3c-7.1-5.3-13.4-10.4-20.4-10.7l0,0c-0.8,0-1.5-0.7-1.4-1.6c0,0,0,0,0,0l0,0c0-0.8,0.7-1.5,1.6-1.4
	l0,0c8.4,0.4,15,6.1,22,11.3l0,0c7,5.3,14.2,10.1,23.4,10.1l0,0c9.3,0,21-5,37-20.9l0,0c0.6-0.6,1.5-0.6,2.1,0c0,0,0,0,0,0l0,0
	c0.6,0.6,0.6,1.5,0,2.1l0,0c-16.2,16.1-28.6,21.7-39.1,21.8l0,0C-877,547-884.8,541.5-891.9,536.3L-891.9,536.3L-891.9,536.3z"/>
<path class="st4" d="M-836.9,528.2c-8.9-0.1-16.1-7.3-23.5-14.1l0,0c-7.4-6.9-14.8-13.4-22.6-13.3l0,0c-7.5,0-16.6,5.7-27.9,24.2
	l0,0c-0.4,0.7-1.3,0.9-2,0.5l0,0c-0.7-0.4-0.9-1.3-0.5-2l0,0c11.5-18.8,21.2-25.6,30.5-25.7l0,0c9.6,0.1,17.3,7.3,24.7,14.1l0,0
	c7.4,6.9,14.4,13.4,21.4,13.3l0,0c2.6,0,5.2-0.8,7.4-2.3l0,0c0.7-0.4,1.6-0.2,2,0.5l0,0c0.4,0.7,0.2,1.6-0.5,2l0,0
	C-830.6,527.2-833.7,528.1-836.9,528.2L-836.9,528.2L-836.9,528.2z"/>
<path class="st5" d="M-846.5,553c-4.4,0-8.2-3-12-7l0,0c-3.8-4.1-7.6-9.3-11.5-14.6l0,0c-7.8-10.6-16.1-20.6-24.1-20.4l0,0
	c-4.9,0-10.5,3.5-16.8,14l0,0c-0.4,0.7-1.3,0.9-2,0.5l0,0c-0.7-0.4-0.9-1.3-0.5-2l0,0c6.5-10.8,12.9-15.4,19.4-15.4l0,0
	c7.8,0.1,14.3,6.4,20.4,13.8l0,0c6.1,7.5,11.9,16.3,17.3,22.1l0,0c3.6,3.9,7,6.1,9.9,6.1l0,0c2.3,0,4.8-1.3,7.6-5.4l0,0
	c2.8-4.1,5.7-10.8,8.7-20.8l0,0c0.2-0.8,1.1-1.2,1.8-1c0,0,0,0,0,0l0,0c0.8,0.2,1.2,1.1,1,1.8l0,0c-3,10.2-6,17.1-9.1,21.6l0,0
	C-839.4,550.8-842.8,553.1-846.5,553L-846.5,553L-846.5,553z"/>
<path class="st2" d="M-858.6,538.5c-10.2,0-17.9-4.9-24.5-9.6l0,0c-6.6-4.8-12.2-9.1-17.5-9.1l0,0c-3.1,0-6.5,1.4-10.5,5.5l0,0
	c-0.6,0.6-1.5,0.6-2.1,0c0,0,0,0,0,0l0,0c-0.6-0.6-0.6-1.5,0-2.1l0,0c4.3-4.4,8.5-6.4,12.6-6.4l0,0c6.9,0.1,12.7,5,19.2,9.6l0,0
	c6.5,4.7,13.7,9.1,22.8,9.1l0,0c7.7,0,17.1-3.1,29-12.4l0,0c0.6-0.5,1.6-0.4,2.1,0.3l0,0c0.5,0.6,0.4,1.6-0.3,2.1l0,0
	C-839.9,534.9-850,538.4-858.6,538.5L-858.6,538.5L-858.6,538.5z"/>
<path class="st6" d="M-883.7,545c-4.8-6.3-8.7-13.8-12.7-18.6l0,0c-2.7-3.2-5.2-5-7.7-5l0,0c-1.9,0-4.2,1-7,3.8l0,0
	c-0.6,0.6-1.5,0.6-2.1,0l0,0c-0.6-0.6-0.6-1.5,0-2.1c0,0,0,0,0,0l0,0c3.1-3.1,6.2-4.7,9.1-4.7l0,0c4,0,7.1,2.7,10,6.1l0,0
	c2.9,3.4,5.6,7.9,8.4,12.3l0,0c5.7,8.9,12,17.1,20.3,17l0,0c8,0.1,19.4-7.3,35.4-30.4l0,0c0.5-0.7,1.4-0.8,2.1-0.4l0,0
	c0.7,0.5,0.8,1.4,0.4,2.1l0,0c-16.2,23.3-28,31.6-37.9,31.7l0,0C-873.2,556.8-879,551.3-883.7,545L-883.7,545L-883.7,545z"/>
<path class="st7" d="M-842.4,531.9c-11-0.1-21.1-9.3-30.4-18.2l0,0c-9.2-9-17.9-17.6-23.8-17.4l0,0c-2.6,0-5.1,1.4-7.6,5.7l0,0
	c-2.5,4.3-4.8,11.6-6.6,22.4l0,0c-0.1,0.8-0.9,1.3-1.7,1.2l0,0c-0.8-0.1-1.4-0.9-1.2-1.7c0,0,0,0,0,0l0,0c1.9-11,4.2-18.5,7-23.4
	l0,0c2.7-4.9,6.3-7.3,10.2-7.2l0,0c8.3,0.2,16.6,9.4,25.9,18.2l0,0c9.2,8.9,19.1,17.5,28.3,17.4l0,0c4.1,0,8.3-1.6,12.6-5.8l0,0
	c0.6-0.6,1.5-0.6,2.1,0l0,0c0.6,0.6,0.6,1.5,0,2.1l0,0C-832.4,529.8-837.4,531.8-842.4,531.9L-842.4,531.9L-842.4,531.9z"/>
</svg>
