<?xml version="1.0" encoding="utf-8"?>
<!-- Generator: Adobe Illustrator 19.1.1, SVG Export Plug-In . SVG Version: 6.00 Build 0)  -->
<svg version="1.1" id="Calque_1" xmlns="http://www.w3.org/2000/svg" xmlns:xlink="http://www.w3.org/1999/xlink" x="0px" y="0px"
	 viewBox="0 0 141.7 85" style="enable-background:new 0 0 141.7 85;" xml:space="preserve">
<style type="text/css">
	.st0{fill:#C6C6C6;stroke:#C6C6C6;stroke-width:0.2;stroke-miterlimit:10;}
	.st1{fill:#0069B4;stroke:#0069B4;stroke-width:0.25;}
	.st2{fill:#008BD2;stroke:#008BD2;stroke-width:0.25;}
	.st3{fill:#B80E80;stroke:#B80E80;stroke-width:0.25;}
	.st4{fill:#5D686E;stroke:#5D686E;stroke-width:0.25;}
	.st5{fill:#F39200;stroke:#F39200;stroke-width:0.25;}
	.st6{fill:#AFCA0B;stroke:#AFCA0B;stroke-width:0.25;}
</style>
<g>
	<path d="M15.1,57.9v3.4c0,1.1-0.9,2-2,2c-1.1,0-2-0.9-2-2v-3.4h0.7v3.4c0,0.8,0.6,1.4,1.4,1.4c0.8,0,1.4-0.6,1.4-1.4v-3.4H15.1z"/>
</g>
<g>
	<path d="M18.7,59v4.2H18v-5.4h0.7l2.9,4.2v-4.2h0.7v5.4h-0.7L18.7,59z"/>
</g>
<g>
	<path d="M25,57.9h0.7v5.4H25V57.9z"/>
</g>
<g>
	<path d="M28.5,57.9l1.7,4.4l1.7-4.4h0.7l-2.1,5.4h-0.7l-2.1-5.4H28.5z"/>
</g>
<g>
	<path d="M34.5,57.9h3.4v0.6h-2.7v1.3h2.4v0.7h-2.4v2.1h2.6v0.7h-3.3V57.9z"/>
</g>
<g>
	<path d="M44.9,63.2h-0.8l-2-2.8h-0.8v2.8h-0.6v-5.4h1.9c0.3,0,0.7,0.1,0.9,0.4c0.2,0.2,0.4,0.6,0.4,0.9c0,0.6-0.4,1.1-1,1.2
		L44.9,63.2z M41.3,59.8h1.2c0.3,0,0.6-0.3,0.6-0.6c0-0.3-0.3-0.6-0.6-0.6h-1.2V59.8z"/>
</g>
<g>
	<path d="M47.9,63.2c-0.6-0.1-1.1-0.4-1.6-0.8l0.4-0.5c0.4,0.3,0.8,0.6,1.3,0.7c0.4,0.1,0.7,0.1,1-0.1c0.2-0.1,0.5-0.3,0.5-0.8
		c0-0.6-0.6-0.8-1.2-0.9c-0.1,0-0.9-0.2-1.2-0.4c-0.5-0.3-0.7-0.7-0.7-1.2c0-0.3,0.1-0.5,0.2-0.8c0.2-0.2,0.4-0.4,0.6-0.5
		c0.4-0.2,0.8-0.2,1.3-0.2c0.5,0.1,1,0.3,1.4,0.7l-0.4,0.5c-0.8-0.6-1.5-0.7-2-0.4c-0.3,0.1-0.5,0.4-0.5,0.7c0,0.5,0.4,0.7,1.1,0.9
		c0.3,0.1,0.9,0.2,1.2,0.4c0.5,0.3,0.7,0.7,0.7,1.2c0,0.3-0.1,0.6-0.3,0.8c-0.2,0.2-0.4,0.4-0.7,0.5c-0.3,0.1-0.6,0.2-0.9,0.2
		C48.3,63.3,48.1,63.3,47.9,63.2z"/>
</g>
<g>
	<path d="M53,57.9h0.7v5.4H53V57.9z"/>
</g>
<g>
	<path d="M57.5,58.6h-1.4v-0.7h3.5v0.7h-1.4v4.7h-0.7V58.6z"/>
</g>
<g>
	<path d="M61.6,57.9H65v0.6h-2.7v1.3h2.4v0.7h-2.4v2.1h2.6v0.7h-3.3V57.9z M63.6,56.6h0.5l-0.6,0.8h-0.3L63.6,56.6z"/>
</g>
<g>
	<path d="M11,66.1H13c0.3,0,0.7,0.1,0.9,0.4c0.2,0.2,0.4,0.6,0.4,0.9c0,0.3-0.1,0.5-0.2,0.7l0,0l0,0c0.2,0.1,0.4,0.2,0.6,0.4
		c0.3,0.3,0.5,0.8,0.5,1.2c0,0.5-0.2,0.9-0.5,1.2c-0.3,0.3-0.8,0.5-1.2,0.5H11V66.1z M13,68c0.3,0,0.6-0.3,0.6-0.6
		c0-0.3-0.3-0.6-0.6-0.6h-1.3V68H13z M13.3,70.8c0.6,0,1.1-0.5,1.1-1.1c0-0.6-0.5-1.1-1.1-1.1h-1.6v2.2H13.3z"/>
</g>
<g>
	<path d="M21.4,68.8c0,1.5-1.3,2.8-2.8,2.8c-1.5,0-2.8-1.2-2.8-2.8c0-1.5,1.3-2.8,2.8-2.8C20.1,66,21.4,67.2,21.4,68.8z M20.7,68.8
		c0-1.2-0.9-2.1-2.1-2.1c-1.2,0-2.1,1-2.1,2.1c0,1.2,0.9,2.1,2.1,2.1C19.8,70.9,20.7,69.9,20.7,68.8z"/>
</g>
<g>
	<path d="M26.4,66.1v3.4c0,1.1-0.9,2-2,2c-1.1,0-2-0.9-2-2v-3.4H23v3.4c0,0.8,0.6,1.4,1.4,1.4c0.8,0,1.4-0.6,1.4-1.4v-3.4H26.4z"/>
</g>
<g>
	<path d="M31.9,71.5h-0.8l-2-2.8h-0.8v2.8h-0.6v-5.4h1.9c0.3,0,0.7,0.1,0.9,0.4c0.2,0.2,0.4,0.6,0.4,0.9c0,0.6-0.4,1.1-1,1.2
		L31.9,71.5z M28.3,68h1.2c0.3,0,0.6-0.3,0.6-0.6c0-0.3-0.3-0.6-0.6-0.6h-1.2V68z"/>
</g>
<g>
	<path d="M36.9,68v2.4c-0.5,0.7-1.4,1.2-2.3,1.2c-1.5,0-2.8-1.3-2.8-2.8c0-1.5,1.3-2.8,2.8-2.8c0.8,0,1.5,0.3,2,0.8l-0.5,0.4
		c-0.4-0.4-0.9-0.6-1.5-0.6c-1.2,0-2.1,1-2.1,2.1c0,1.2,1,2.1,2.1,2.1c0.6,0,1.2-0.3,1.6-0.7v-1.5h-1.6V68H36.9z"/>
</g>
<g>
	<path d="M43.5,68.8c0,1.5-1.3,2.8-2.8,2.8c-1.5,0-2.8-1.2-2.8-2.8c0-1.5,1.3-2.8,2.8-2.8C42.2,66,43.5,67.2,43.5,68.8z M42.8,68.8
		c0-1.2-0.9-2.1-2.1-2.1c-1.2,0-2.1,1-2.1,2.1c0,1.2,0.9,2.1,2.1,2.1C41.8,70.9,42.8,69.9,42.8,68.8z"/>
</g>
<g>
	<path d="M49.3,68v2.4c-0.5,0.7-1.4,1.2-2.3,1.2c-1.5,0-2.8-1.3-2.8-2.8c0-1.5,1.3-2.8,2.8-2.8c0.8,0,1.5,0.3,2,0.8l-0.5,0.4
		c-0.4-0.4-0.9-0.6-1.5-0.6c-1.2,0-2.1,1-2.1,2.1c0,1.2,1,2.1,2.1,2.1c0.6,0,1.2-0.3,1.6-0.7v-1.5H47V68H49.3z"/>
</g>
<g>
	<path d="M51.3,67.2v4.2h-0.7v-5.4h0.7l2.9,4.2v-4.2h0.7v5.4h-0.7L51.3,67.2z"/>
</g>
<g>
	<path d="M56.5,66.1h3.4v0.6h-2.7V68h2.4v0.7h-2.4v2.1h2.6v0.7h-3.3V66.1z"/>
</g>
<g>
	<path d="M62.9,66.1h3.4v0.7h-2.7V68h1.5v0.7h-1.5v2.8h-0.7V66.1z"/>
</g>
<g>
	<path d="M71.4,71.5h-0.8l-2-2.8h-0.8v2.8h-0.6v-5.4H69c0.3,0,0.7,0.1,0.9,0.4c0.2,0.2,0.4,0.6,0.4,0.9c0,0.6-0.4,1.1-1,1.2
		L71.4,71.5z M67.8,68H69c0.3,0,0.6-0.3,0.6-0.6c0-0.3-0.3-0.6-0.6-0.6h-1.2V68z"/>
</g>
<g>
	<path d="M75.3,69.9h-2.2l-0.6,1.6h-0.7l2.1-5.4h0.7l2.1,5.4h-0.7L75.3,69.9z M74.2,67.1l-0.8,2.2H75L74.2,67.1z"/>
</g>
<g>
	<path d="M78.3,67.2v4.2h-0.7v-5.4h0.7l2.9,4.2v-4.2h0.7v5.4h-0.7L78.3,67.2z"/>
</g>
<g>
	<path d="M87.6,70l0.5,0.4c-0.5,0.7-1.4,1.1-2.2,1.1c-1.5,0-2.8-1.3-2.8-2.8c0-1.5,1.3-2.8,2.8-2.8c0.9,0,1.7,0.4,2.2,1.1l-0.5,0.4
		c-0.4-0.5-1-0.9-1.7-0.9c-1.2,0-2.1,1-2.1,2.1c0,1.2,1,2.1,2.1,2.1C86.5,70.9,87.2,70.6,87.6,70z"/>
</g>
<g>
	<path d="M92.6,68.7h-2.7v2.8h-0.7v-5.4h0.7V68h2.7v-1.9h0.7v5.4h-0.7V68.7z"/>
</g>
<g>
	<path d="M94.7,66.1H98v0.6h-2.7V68h2.4v0.7h-2.4v2.1H98v0.7h-3.3V66.1z"/>
</g>
<g>
	<path d="M101.1,70.1h-2.3v-0.6h2.3V70.1z"/>
</g>
<g>
	<path d="M106.5,70l0.5,0.4c-0.5,0.7-1.4,1.1-2.2,1.1c-1.5,0-2.8-1.3-2.8-2.8c0-1.5,1.3-2.8,2.8-2.8c0.9,0,1.7,0.4,2.2,1.1l-0.5,0.4
		c-0.4-0.5-1-0.9-1.7-0.9c-1.2,0-2.1,1-2.1,2.1c0,1.2,1,2.1,2.1,2.1C105.5,70.9,106.1,70.6,106.5,70z"/>
</g>
<g>
	<path d="M113.4,68.8c0,1.5-1.3,2.8-2.8,2.8c-1.5,0-2.8-1.2-2.8-2.8c0-1.5,1.3-2.8,2.8-2.8C112.1,66,113.4,67.2,113.4,68.8z
		 M112.7,68.8c0-1.2-0.9-2.1-2.1-2.1c-1.2,0-2.1,1-2.1,2.1c0,1.2,0.9,2.1,2.1,2.1C111.8,70.9,112.7,69.9,112.7,68.8z"/>
</g>
<g>
	<path d="M118.4,71.5v-4.3l-1.7,2.3l-1.7-2.3v4.3h-0.7v-5.4h0.7l1.7,2.3l1.7-2.3h0.7v5.4H118.4z"/>
</g>
<g>
	<path d="M121.6,66.8h-1.4v-0.7h3.5v0.7h-1.4v4.7h-0.7V66.8z"/>
</g>
<g>
	<path d="M124.6,66.1h3.4v0.6h-2.7V68h2.4v0.7h-2.4v2.1h2.6v0.7h-3.3V66.1z M126.6,64.8h0.5l-0.6,0.8h-0.3L126.6,64.8z"/>
</g>
<g>
	<g>
		<g>
			<rect x="6.8" y="51.6" width="64.7" height="0.3"/>
		</g>
	</g>
	<g>
		<path d="M23.1,30.5v10.1c0,3.3-2.7,6-6.1,6c-3.3,0-6-2.7-6-6V30.5h2v10.1c0,2.2,1.8,4.1,4.1,4.1c2.2,0,4.1-1.9,4.1-4.1V30.5H23.1z
			"/>
	</g>
	<g>
		<path d="M26.1,30.5h5.7c1,0,2,0.4,2.7,1.1c0.7,0.7,1.1,1.6,1.1,2.7c0,0.8-0.2,1.5-0.7,2.1l0,0l0,0c0.6,0.2,1.2,0.6,1.7,1.1
			c1,1,1.5,2.3,1.5,3.6c0,1.4-0.5,2.7-1.5,3.6c-1,1-2.2,1.5-3.6,1.5h-6.9V30.5z M31.8,36.1c1,0,1.8-0.8,1.8-1.8c0-1-0.8-1.8-1.8-1.8
			h-3.7v3.6H31.8z M33,44.4c1.7,0,3.1-1.5,3.1-3.2c0-1.7-1.4-3.2-3.1-3.2h-4.9v6.4H33z"/>
	</g>
	<g>
		<path d="M40.3,30.5h10v1.9h-8v3.7h4.4v2h-4.4v8.2h-2V30.5z"/>
	</g>
	<g>
		<path d="M64.1,42.1l1.6,1.2c-1.6,2.1-4,3.3-6.6,3.3c-4.6,0-8.3-3.7-8.3-8.3c0-4.6,3.7-8.3,8.3-8.3c2.6,0,5.1,1.2,6.6,3.3l-1.6,1.2
			C62.9,32.9,61,32,59,32c-3.5,0-6.3,2.8-6.3,6.3c0,3.5,2.8,6.4,6.3,6.4C61,44.6,62.8,43.7,64.1,42.1z"/>
	</g>
</g>
<g>
	<path class="st0" d="M103.7,36.2C98,29.5,92.2,22.7,85.6,22.8l0,0c-4.6,0-9.6,3.3-15.3,12.1l0,0l0,0c0,0-0.1,0-0.1,0l0,0
		c0,0,0-0.1,0-0.1l0,0c5.7-8.9,10.8-12.2,15.5-12.2l0,0c6.7,0,12.5,6.8,18.3,13.5l0,0c5.7,6.8,11.3,13.5,17.5,13.5l0,0
		c4.7,0,9.8-3.9,15.5-14.8l0,0c0,0,0.1-0.1,0.1,0l0,0c0,0,0.1,0.1,0,0.1l0,0c-5.8,10.9-10.9,14.9-15.7,14.9l0,0
		C115,49.7,109.4,43,103.7,36.2L103.7,36.2z"/>
	<path class="st0" d="M129,53.9c-6.9,0-17-6-26.9-12l0,0c-9.9-6-19.7-12-25.8-12l0,0c-3,0-5.1,1.4-6,5l0,0c0,0-0.1,0.1-0.1,0.1l0,0
		c0,0-0.1-0.1-0.1-0.1l0,0c0.9-3.6,3.1-5.1,6.1-5.1l0,0c6.2,0,16,6,25.9,12l0,0c9.9,6,20.1,12,26.8,12l0,0c2.5,0,4.6-0.8,6-2.8l0,0
		c1.4-2,2.2-5.1,2.2-9.6l0,0c0-1.9-0.1-4.1-0.4-6.5l0,0c0,0,0-0.1,0.1-0.1l0,0c0,0,0.1,0,0.1,0.1l0,0c0.3,2.4,0.4,4.6,0.4,6.5l0,0
		c0,4.6-0.8,7.7-2.3,9.7l0,0C133.7,53.1,131.5,53.9,129,53.9L129,53.9C129,53.9,129,53.9,129,53.9L129,53.9z"/>
	<path class="st0" d="M117.7,61.5c-13.3,0-29.5-15.9-39.2-23.9l0,0c-3.2-2.6-5.7-4.4-7.1-4.4l0,0c-0.7,0-1.1,0.4-1.2,1.6l0,0
		c0,0,0,0.1-0.1,0.1l0,0c0,0-0.1,0-0.1-0.1l0,0c0.1-1.1,0.5-1.7,1.3-1.7l0,0c1.5,0,3.9,1.8,7.2,4.4l0,0c3.2,2.7,7.2,6.2,11.5,9.7
		l0,0c8.7,7.1,18.8,14.1,27.6,14.1l0,0c8.5,0,15.8-6.6,19.1-26.6l0,0c0,0,0-0.1,0.1-0.1l0,0c0,0,0.1,0,0.1,0.1l0,0
		C133.7,54.8,126.4,61.5,117.7,61.5L117.7,61.5L117.7,61.5L117.7,61.5z"/>
	<path class="st0" d="M119.8,42.4c-9.9,0-19.7-6.2-28-12.4l0,0c-8.3-6.2-15.1-12.4-18.9-12.3l0,0c-1.1,0-2,0.5-2.6,1.7l0,0
		c-0.6,1.2-0.9,3.1-0.9,5.8l0,0c0,2.5,0.3,5.6,0.8,9.6l0,0l0,0c0,0,0,0.1-0.1,0.1l0,0c0,0-0.1,0-0.1-0.1l0,0c-0.5-4-0.8-7.1-0.8-9.6
		l0,0c0-2.8,0.3-4.7,0.9-5.9l0,0c0.6-1.2,1.5-1.8,2.7-1.8l0,0c4,0,10.7,6.2,19,12.4l0,0c8.3,6.2,18.1,12.3,27.9,12.3l0,0
		c5.7,0,11.5-2.1,17-7.5l0,0c0,0,0.1,0,0.1,0l0,0c0,0,0,0.1,0,0.1l0,0C131.4,40.3,125.6,42.4,119.8,42.4L119.8,42.4L119.8,42.4
		L119.8,42.4z"/>
	<path class="st0" d="M116,52.3c-7.7,0-15.3-5.1-22.2-10.2l0,0C86.8,37,80.6,31.9,75.7,31.9l0,0c-2,0-3.9,0.9-5.4,3l0,0
		c0,0-0.1,0-0.1,0l0,0c0,0,0-0.1,0-0.1l0,0c1.6-2.2,3.5-3.1,5.5-3.1l0,0c5,0,11.3,5.1,18.2,10.2l0,0c6.9,5.1,14.5,10.2,22.1,10.2
		l0,0c7.1,0,14.2-4.4,20.9-17.3l0,0c0,0,0.1-0.1,0.1,0l0,0c0,0,0.1,0.1,0,0.1l0,0C130.3,47.8,123.1,52.3,116,52.3L116,52.3L116,52.3
		L116,52.3z"/>
	<path class="st0" d="M113.1,27.5c-10.8-4.4-23-8.8-31.8-8.8l0,0c-3.5,0-6.4,0.7-8.5,2.4l0,0c-2.1,1.7-3.2,4.3-3.2,8.3l0,0
		c0,1.6,0.2,3.4,0.6,5.4l0,0c0,0,0,0.1-0.1,0.1l0,0c0,0-0.1,0-0.1-0.1l0,0c-0.4-2-0.6-3.8-0.6-5.4l0,0c0-4,1.2-6.7,3.3-8.4l0,0
		c2.1-1.7,5.1-2.4,8.6-2.4l0,0c8.8,0,21,4.4,31.8,8.8l0,0c10.8,4.4,20.1,8.8,23,8.8l0,0c0.3,0,0.5,0,0.7-0.1l0,0
		c0.1-0.1,0.2-0.2,0.2-0.4l0,0c0-0.2-0.1-0.4-0.2-0.7l0,0c0,0,0-0.1,0-0.1l0,0c0,0,0.1,0,0.1,0l0,0c0.2,0.3,0.2,0.6,0.2,0.8l0,0
		c0,0.2-0.1,0.4-0.3,0.5l0,0c-0.2,0.1-0.4,0.2-0.7,0.2l0,0C133.2,36.3,123.9,31.9,113.1,27.5L113.1,27.5z"/>
	<path class="st0" d="M130.2,38c-5.9,0-11.8-6.3-18-12.5l0,0C106,19.2,99.5,13,92.4,13l0,0c-6.7,0-14,5.5-22.2,21.9l0,0
		c0,0-0.1,0.1-0.1,0l0,0c0,0-0.1-0.1,0-0.1l0,0c8.2-16.4,15.5-22,22.3-22l0,0c7.2,0,13.7,6.3,19.9,12.5l0,0
		c6.2,6.3,12,12.5,17.9,12.5l0,0c2.2,0,4.4-0.9,6.6-3l0,0c0,0,0.1,0,0.1,0l0,0c0,0,0,0.1,0,0.1l0,0C134.7,37,132.4,38,130.2,38
		L130.2,38C130.2,38,130.2,38,130.2,38L130.2,38z"/>
	<path class="st0" d="M135.6,40.2c-1.3,0-3.4-1.9-6.1-4.6l0,0c-2.7-2.7-6.1-6.4-9.8-10.1l0,0c-7.5-7.3-16.6-14.6-25.7-14.6l0,0
		c-8.3,0-16.6,6.1-23.7,24l0,0l0,0c0,0-0.1,0.1-0.1,0l0,0c0,0-0.1-0.1,0-0.1l0,0c7.1-17.9,15.4-24,23.8-24l0,0
		c13.8,0,27.5,16.5,35.6,24.7l0,0c2.7,2.7,4.8,4.6,6,4.6l0,0c0.4,0,0.7-0.2,1-0.7l0,0c0.2-0.5,0.4-1.2,0.4-2.3l0,0
		c0-0.6,0-1.3-0.1-2.2l0,0c0,0,0-0.1,0.1-0.1l0,0c0,0,0.1,0,0.1,0.1l0,0c0.1,0.8,0.1,1.6,0.1,2.2l0,0c0,1.1-0.1,1.9-0.4,2.4l0,0
		C136.5,39.9,136.1,40.2,135.6,40.2L135.6,40.2C135.6,40.2,135.6,40.2,135.6,40.2L135.6,40.2z"/>
	<path class="st0" d="M103.5,24.6c-8.9-5.9-17.2-11.8-23.3-11.8l0,0c-2.9,0-5.4,1.4-7.1,4.8l0,0c-1.7,3.4-2.7,9-2.8,17.2l0,0
		c0,0,0,0.1-0.1,0.1l0,0c0,0-0.1,0-0.1-0.1l0,0c0.1-8.3,1.1-13.8,2.9-17.3l0,0c1.7-3.5,4.2-4.9,7.2-4.9l0,0
		c6.2,0,14.5,5.9,23.4,11.8l0,0c8.9,5.9,18.3,11.8,26.6,11.8l0,0c2.3,0,4.6-0.5,6.7-1.5l0,0c0,0,0.1,0,0.1,0l0,0c0,0,0,0.1,0,0.1
		l0,0c-2.1,1.1-4.4,1.5-6.7,1.5l0,0C121.8,36.5,112.4,30.5,103.5,24.6L103.5,24.6z"/>
	<path class="st0" d="M126.6,44.4c-7.3,0-16.6-6.9-25.6-13.8l0,0c-9-6.9-17.7-13.7-23.5-13.7l0,0c-2.2,0-4,1-5.3,3.4l0,0
		c-1.3,2.4-2,6.2-2,11.8l0,0c0,0.9,0,1.8,0,2.7l0,0c0,0,0,0.1-0.1,0.1l0,0c0,0-0.1,0-0.1-0.1l0,0c0-0.9,0-1.8,0-2.7l0,0
		c0-5.6,0.7-9.5,2-11.9l0,0c1.3-2.4,3.1-3.5,5.4-3.5l0,0c5.9,0,14.6,6.9,23.6,13.8l0,0c9,6.9,18.4,13.7,25.6,13.7l0,0
		c4.4,0,8-2.6,10.2-9.4l0,0c0,0,0.1-0.1,0.1,0l0,0c0,0,0.1,0.1,0,0.1l0,0C134.7,41.8,131.1,44.4,126.6,44.4L126.6,44.4
		C126.6,44.4,126.6,44.4,126.6,44.4L126.6,44.4z"/>
	<path class="st0" d="M135.2,36.2c-1.5,0-3.6-1.5-6.3-3.6l0,0c-2.6-2.2-5.8-5-9.3-7.9l0,0c-7-5.7-15.5-11.5-24.2-11.5l0,0
		c-8.5,0-17.2,5.4-25.1,21.7l0,0c0,0-0.1,0.1-0.1,0l0,0c0,0-0.1-0.1,0-0.1l0,0C78,18.5,86.8,13,95.4,13l0,0
		c13.2,0,25.7,13,33.6,19.4l0,0c2.6,2.2,4.8,3.6,6.2,3.6l0,0c0.7,0,1.3-0.4,1.6-1.2l0,0c0,0,0.1-0.1,0.1,0l0,0c0,0,0.1,0.1,0,0.1
		l0,0C136.6,35.8,136,36.2,135.2,36.2L135.2,36.2C135.2,36.2,135.2,36.2,135.2,36.2L135.2,36.2z"/>
	<path class="st0" d="M127.6,58.2c-6,0-14.2-6.7-22.9-13.3l0,0c-8.7-6.6-18-13.3-26-13.3l0,0c-3.1,0-5.9,1-8.5,3.3l0,0
		c0,0-0.1,0-0.1,0l0,0c0,0,0-0.1,0-0.1l0,0c2.6-2.3,5.6-3.3,8.6-3.3l0,0c8.1,0,17.3,6.7,26,13.3l0,0c8.7,6.6,16.9,13.3,22.8,13.3
		l0,0c2.8,0,5-1.4,6.6-5.1l0,0c1.6-3.6,2.5-9.4,2.6-18.1l0,0c0,0,0-0.1,0.1-0.1l0,0c0,0,0.1,0,0.1,0.1l0,0c-0.1,8.7-1,14.5-2.6,18.2
		l0,0C132.8,56.7,130.4,58.2,127.6,58.2L127.6,58.2C127.6,58.2,127.6,58.2,127.6,58.2L127.6,58.2z"/>
	<path class="st0" d="M101.7,38.2c-6.1-5-12.3-10-18.8-10l0,0c-4,0-8.2,1.8-12.6,6.7l0,0l0,0c0,0-0.1,0-0.1,0l0,0c0,0,0-0.1,0-0.1
		l0,0c4.5-4.9,8.7-6.7,12.8-6.7l0,0c6.7,0,12.8,5,18.9,10l0,0c6.1,5,12.1,10,18.4,10l0,0c5.2,0,10.7-3.4,16.6-13.2l0,0
		c0,0,0.1,0,0.1,0l0,0c0,0,0,0.1,0,0.1l0,0c-5.9,9.8-11.4,13.3-16.7,13.3l0,0C113.8,48.2,107.8,43.2,101.7,38.2L101.7,38.2z"/>
	<path class="st0" d="M133.9,42.3c-4.4,0-12.6-5.2-21.8-10.3l0,0c-9.2-5.1-19.3-10.3-27.4-10.3l0,0c-6.7,0-12,3.4-14.5,13.2l0,0
		c0,0-0.1,0.1-0.1,0.1l0,0c0,0-0.1-0.1-0.1-0.1l0,0C72.6,25,78,21.5,84.7,21.5l0,0c8.2,0,18.3,5.2,27.5,10.3l0,0
		c9.2,5.1,17.4,10.3,21.7,10.3l0,0c1,0,1.8-0.3,2.4-0.9l0,0c0.6-0.7,0.9-1.7,0.9-3.1l0,0c0-0.9-0.1-1.9-0.3-3.2l0,0
		c0,0,0-0.1,0.1-0.1l0,0c0,0,0.1,0,0.1,0.1l0,0c0.2,1.2,0.3,2.3,0.3,3.2l0,0c0,1.5-0.3,2.6-0.9,3.2l0,0
		C135.8,42,135,42.3,133.9,42.3L133.9,42.3L133.9,42.3L133.9,42.3z"/>
	<path class="st0" d="M126,61c-12.7,0-33-15.5-45.3-23.3l0,0c-4.1-2.6-7.3-4.3-9.1-4.3l0,0c-0.9,0-1.4,0.4-1.4,1.4l0,0
		c0,0,0,0.1-0.1,0.1l0,0c0,0-0.1,0-0.1-0.1l0,0c0-1.1,0.6-1.6,1.6-1.6l0,0c1.8,0,5,1.7,9.1,4.3l0,0c4.1,2.6,9.1,6,14.4,9.5l0,0
		c10.6,6.9,22.4,13.8,30.8,13.8l0,0c6.8,0,11.4-4.4,11.4-17l0,0c0-2.6-0.2-5.6-0.6-8.9l0,0c0,0,0-0.1,0.1-0.1l0,0c0,0,0.1,0,0.1,0.1
		l0,0c0.4,3.4,0.6,6.3,0.6,9l0,0c0,6.3-1.2,10.6-3.2,13.3l0,0C132.4,59.9,129.5,61,126,61L126,61C126.1,61,126,61,126,61L126,61z"/>
</g>
<g>
	<path class="st1" d="M91.4,47C87,44.1,83,40.6,79,38.2l0,0c-2.7-1.6-5.4-2.7-8.4-2.8l0,0c-0.2,0-0.4-0.2-0.4-0.4l0,0
		c0-0.2,0.2-0.4,0.4-0.4l0,0c3.1,0.1,6,1.3,8.8,2.9l0,0c2.8,1.6,5.5,3.7,8.2,5.8l0,0c5.5,4.2,11.4,8.2,18.9,8.2l0,0
		c7.6,0,17.1-4.1,29.8-16.7l0,0c0.2-0.2,0.4-0.2,0.6,0l0,0c0.2,0.2,0.2,0.4,0,0.6l0,0c-12.7,12.7-22.4,17-30.3,17l0,0
		C100.7,52.3,95.8,50,91.4,47L91.4,47z"/>
	<path class="st2" d="M130.3,37.3c-4.9,0-9.3-3.1-13.7-7l0,0c-4.4-3.8-8.7-8.4-13.3-11.4l0,0c-3.1-2-6.2-3.3-9.6-3.3l0,0
		c-3.2,0-6.7,1.2-10.4,4.3l0,0c-3.8,3.1-7.9,8-12.4,15.3l0,0l0,0c-0.1,0.2-0.4,0.3-0.6,0.1l0,0c-0.2-0.1-0.3-0.4-0.1-0.6l0,0
		c4.5-7.4,8.7-12.4,12.6-15.6l0,0c3.9-3.1,7.5-4.4,11-4.4l0,0c5.4,0,10.1,3.1,14.6,7l0,0c4.5,3.8,8.8,8.4,13.1,11.4l0,0
		c2.9,2,5.8,3.3,8.8,3.3l0,0c1.9,0,3.9-0.5,6-1.8l0,0c0.2-0.1,0.5-0.1,0.6,0.1l0,0c0.1,0.2,0.1,0.5-0.1,0.6l0,0
		C134.6,36.7,132.4,37.3,130.3,37.3L130.3,37.3C130.3,37.3,130.3,37.3,130.3,37.3L130.3,37.3z"/>
	<path class="st3" d="M122.6,57c-2.3,0-4.5-1.2-6.7-3.2l0,0c-2.2-1.9-4.4-4.6-6.7-7.5l0,0c-4.5-5.9-9.2-12.9-14.1-17.5l0,0
		c-3.3-3.1-6.6-5.1-10.1-5.1l0,0c-2.1,0-4.4,0.8-6.7,2.6l0,0c-2.3,1.8-4.8,4.7-7.3,8.9l0,0l0,0c-0.1,0.2-0.4,0.3-0.6,0.1l0,0
		c-0.2-0.1-0.3-0.4-0.1-0.6l0,0c2.6-4.2,5-7.2,7.5-9.1l0,0c2.4-1.9,4.8-2.8,7.2-2.8l0,0c3.3,0,6.4,1.7,9.4,4.2l0,0
		c3,2.5,5.8,5.9,8.6,9.5l0,0c5.5,7.2,10.7,15.1,15.6,18.2l0,0c1.4,0.9,2.8,1.4,4.1,1.4l0,0c1.1,0,2.2-0.3,3.3-1.1l0,0
		c1.1-0.7,2.2-1.9,3.4-3.6l0,0c2.3-3.3,4.6-8.7,7-16.6l0,0c0.1-0.2,0.3-0.3,0.5-0.3l0,0c0.2,0.1,0.3,0.3,0.3,0.5l0,0
		c-1.8,6-3.5,10.5-5.3,13.9l0,0c-1.8,3.4-3.5,5.5-5.4,6.8l0,0C125.1,56.6,123.8,57,122.6,57L122.6,57C122.6,57,122.6,57,122.6,57
		L122.6,57z"/>
	<path class="st4" d="M113.1,45.9c-5.8,0-10.6-2.2-14.9-4.8l0,0c-4.3-2.7-8-5.9-11.5-7.9l0,0c-2.4-1.4-4.7-2.3-7-2.3l0,0
		c-2.7,0-5.5,1.2-8.8,4.5l0,0l0,0c-0.2,0.2-0.4,0.2-0.6,0l0,0c-0.2-0.2-0.2-0.4,0-0.6l0,0c3.3-3.4,6.4-4.7,9.4-4.7l0,0
		c2.5,0,5,1,7.4,2.4l0,0c2.4,1.4,4.9,3.3,7.5,5.2l0,0c5.2,3.8,11.1,7.5,18.5,7.5l0,0c6.3,0,13.8-2.7,23.2-10.3l0,0
		c0.2-0.1,0.4-0.1,0.6,0.1l0,0c0.1,0.2,0.1,0.4-0.1,0.6l0,0C127.4,43.1,119.6,45.9,113.1,45.9L113.1,45.9L113.1,45.9L113.1,45.9z"/>
	<path class="st5" d="M100.8,57.9c-2.1-1.3-3.9-3.1-5.6-5.1l0,0c-3.4-4.1-6.3-9.2-9.1-13.3l0,0c-1.9-2.7-3.7-5-5.7-6.3l0,0
		c-1.1-0.7-2.2-1.1-3.4-1.1l0,0c-1.8,0-3.8,0.9-6.1,3.2l0,0l0,0c-0.2,0.2-0.4,0.2-0.6,0l0,0c-0.2-0.2-0.2-0.4,0-0.6l0,0
		c2.4-2.4,4.6-3.5,6.7-3.5l0,0c2.1,0,3.9,1.1,5.6,2.7l0,0c1.7,1.6,3.3,3.9,5,6.3l0,0c3.3,4.9,6.6,10.8,10.7,14.7l0,0
		c2.7,2.6,5.8,4.3,9.4,4.3l0,0c3.4,0,7.4-1.5,12.1-5.3l0,0c4.7-3.8,10.2-9.9,16.5-19.1l0,0c0.1-0.2,0.4-0.2,0.6-0.1l0,0
		c0.2,0.1,0.2,0.4,0.1,0.6l0,0c-6.4,9.2-11.9,15.4-16.7,19.3l0,0c-4.8,3.9-9,5.5-12.6,5.5l0,0C105.1,60,102.8,59.2,100.8,57.9
		L100.8,57.9z"/>
	<path class="st6" d="M126,40.1c-6.2,0-12.2-4-17.9-9l0,0c-5.7-5-11.1-10.9-16-14.8l0,0c-3.3-2.6-6.3-4.3-8.9-4.3l0,0
		c-1.2,0-2.4,0.3-3.5,1.1l0,0c-1.1,0.8-2.2,2-3.2,3.8l0,0c-2.1,3.6-3.9,9.4-5.4,18.1l0,0c0,0.2-0.3,0.4-0.5,0.3l0,0
		c-0.2,0-0.4-0.3-0.3-0.5l0,0c1.1-6.5,2.4-11.5,3.9-15.1l0,0c1.5-3.6,3.1-6,5-7.3l0,0c1.2-0.9,2.6-1.3,4-1.3l0,0c2.2,0,4.6,1,7,2.7
		l0,0c2.4,1.6,5,3.9,7.6,6.3l0,0c5.2,4.9,10.9,10.8,16.7,14.8l0,0c3.9,2.6,7.8,4.3,11.7,4.3l0,0c3.4,0,6.9-1.3,10.3-4.6l0,0
		c0.2-0.2,0.4-0.1,0.6,0l0,0c0.2,0.2,0.1,0.4,0,0.6l0,0C133.3,38.7,129.6,40.1,126,40.1L126,40.1C126,40.1,126,40.1,126,40.1
		L126,40.1z"/>
</g>
</svg>
